<?xml version="1.0" encoding="UTF-8" standalone="no"?>
<!-- Created with Inkscape (http://www.inkscape.org/) -->

<svg
   xmlns:dc="http://purl.org/dc/elements/1.1/"
   xmlns:cc="http://creativecommons.org/ns#"
   xmlns:rdf="http://www.w3.org/1999/02/22-rdf-syntax-ns#"
   xmlns:svg="http://www.w3.org/2000/svg"
   xmlns="http://www.w3.org/2000/svg"
   xmlns:sodipodi="http://sodipodi.sourceforge.net/DTD/sodipodi-0.dtd"
   xmlns:inkscape="http://www.inkscape.org/namespaces/inkscape"
   width="42.333332mm"
   height="42.333267mm"
   viewBox="0 0 42.333332 42.333268"
   version="1.1"
   id="svg8"
   inkscape:version="0.92.4 5da689c313, 2019-01-14"
   sodipodi:docname="logo.svg">
  <defs
     id="defs2" />
  <sodipodi:namedview
     id="base"
     pagecolor="#ffffff"
     bordercolor="#666666"
     borderopacity="1.0"
     inkscape:pageopacity="0.0"
     inkscape:pageshadow="2"
     inkscape:zoom="2.8722564"
     inkscape:cx="72.112191"
     inkscape:cy="86.838172"
     inkscape:document-units="mm"
     inkscape:current-layer="g4852"
     showgrid="true"
     inkscape:snap-bbox="true"
     inkscape:snap-bbox-midpoints="true"
     inkscape:snap-nodes="true"
     inkscape:snap-others="true"
     inkscape:snap-object-midpoints="true"
     showguides="true"
     inkscape:guide-bbox="true"
     inkscape:bbox-nodes="true"
     inkscape:window-width="1920"
     inkscape:window-height="1023"
     inkscape:window-x="0"
     inkscape:window-y="33"
     inkscape:window-maximized="1"
     inkscape:object-paths="true">
    <inkscape:grid
       type="xygrid"
       id="grid3713"
       originx="-12.7"
       originy="-33.866735" />
  </sodipodi:namedview>
  <metadata
     id="metadata5">
    <rdf:RDF>
      <cc:Work
         rdf:about="">
        <dc:format>image/svg+xml</dc:format>
        <dc:type
           rdf:resource="http://purl.org/dc/dcmitype/StillImage" />
        <dc:title></dc:title>
      </cc:Work>
    </rdf:RDF>
  </metadata>
  <g
     style="display:inline"
     inkscape:label="Logo"
     id="g4852"
     inkscape:groupmode="layer"
     transform="translate(-12.7,-220.8)">
    <path
       inkscape:connector-curvature="0"
       style="display:inline;fill:#000000;fill-opacity:1;stroke:none;stroke-width:0.1;stroke-miterlimit:4;stroke-dasharray:none"
       d="m 48.384643,222.31826 c -0.293786,-0.0132 -0.545166,0.063 -0.732253,0.25012 l -6.6983,6.6983 H 13.758333 c -0.586316,0 -1.058333,0.47202 -1.058333,1.05833 V 262.075 c 0,0.58632 0.472017,1.05834 1.058333,1.05834 h 31.75 c 0.586317,0 1.058334,-0.47202 1.058334,-1.05834 v -27.19522 l 6.6983,-6.69882 c 0.748353,-0.74835 -0.280456,-2.5258 -1.683621,-3.92896 -1.052372,-1.05238 -2.315339,-1.89427 -3.196703,-1.93374 z m 0.01138,0.73019 c 0.516689,-0.0563 1.641914,0.78254 2.624129,1.76475 1.122532,1.12253 2.057797,2.43237 1.683618,2.80655 -0.748358,0.74836 -5.238525,-3.7418 -4.490164,-4.49016 0.04677,-0.0468 0.108606,-0.0731 0.182417,-0.0811 z m -0.930693,0.82941 c -0.561266,0.56126 3.928901,5.05142 4.490167,4.49017 l -0.935345,0.93534 c -0.748358,0.74836 -5.238525,-3.74181 -4.490164,-4.49017 z m -2.057755,2.05776 0.748276,1.12292 -9.541536,9.54153 -0.748276,-1.12291 z m 1.309481,1.68413 1.49655,1.49655 -9.541537,9.54154 c -0.498895,-0.49892 -0.997646,-0.99763 -1.496549,-1.49656 z m 2.058273,2.05776 1.12241,0.74827 -9.541536,9.54154 -1.12241,-0.74827 z m -35.016993,0.11833 h 26.66659 l -1.852083,1.85208 h -1.002007 l -0.471805,1.47381 -2.542481,2.54249 -0.866098,2.59828 H 33.072917 L 30.95625,231.64792 H 26.9875 l -2.116667,6.87917 h -2.38125 l -2.116666,-6.87917 h -3.96875 l -2.116667,6.87917 v 1.05833 h 0.79375 l 2.116667,-6.87917 h 2.38125 l 2.116666,6.87917 h 3.439584 0.529166 l 2.116667,-6.87917 h 2.38125 l 2.116667,6.87917 h 0.970483 l -0.882118,2.64583 h -4.321699 l -0.79375,3.43959 -0.79375,-3.43959 H 17.4625 l -0.79375,3.43959 H 14.2875 v 1.05833 h 2.38125 l 0.79375,3.43958 h 8.995833 l 0.79375,-3.43958 0.79375,3.43958 h 4.497917 c 1.049946,-2.30981 -0.394557,-4.12083 -0.376206,-6.22443 l 8.00158,-2.667 2.457733,-2.45774 0.235643,0.76584 h 2.116667 v -1.05833 H 43.65625 l -0.173633,-0.56378 2.554883,-2.55436 V 262.075 c 0,0.29316 -0.236008,0.52917 -0.529167,0.52917 h -31.75 c -0.293158,0 -0.529166,-0.23601 -0.529166,-0.52917 v -31.74999 c 0,-0.29316 0.236008,-0.52917 0.529166,-0.52917 z m 21.54649,6.61717 c -3e-6,0.74835 3.367667,4.11552 4.116027,4.11552 l -4.490167,1.49706 c -0.374173,0 -1.122923,-0.74874 -1.122928,-1.12294 z m -17.048573,6.87658 h 7.408333 l 0.529167,2.38125 v 1.05833 l -0.529167,2.38125 H 18.25625 l -0.529167,-2.38125 v -1.05833 z m 10.583333,0 h 2.38125 c -0.529166,2.64583 1.058334,3.70419 0.529167,5.82083 h -2.910417 l -0.529166,-2.38125 v -1.05833 z m -11.377083,9.525 -2.116667,6.87916 H 14.2875 v 1.05834 h 1.852083 l 2.116667,-6.87917 h 8.202083 l 2.116667,6.87917 h 16.404167 v -1.05834 H 29.36875 l -2.116667,-6.87916 z"
       id="rect4822-6" />
  </g>
</svg>
