<?xml version="1.0" encoding="UTF-8" standalone="no"?>
<!-- Created with Inkscape (http://www.inkscape.org/) -->

<svg
   xmlns:dc="http://purl.org/dc/elements/1.1/"
   xmlns:cc="http://creativecommons.org/ns#"
   xmlns:rdf="http://www.w3.org/1999/02/22-rdf-syntax-ns#"
   xmlns:svg="http://www.w3.org/2000/svg"
   xmlns="http://www.w3.org/2000/svg"
   xmlns:sodipodi="http://sodipodi.sourceforge.net/DTD/sodipodi-0.dtd"
   xmlns:inkscape="http://www.inkscape.org/namespaces/inkscape"
   width="210mm"
   height="297mm"
   viewBox="0 0 210 297"
   version="1.1"
   id="svg2589"
   inkscape:version="0.92.4 5da689c313, 2019-01-14"
   sodipodi:docname="stimc.svg">
  <defs
     id="defs2583" />
  <sodipodi:namedview
     id="base"
     pagecolor="#ffffff"
     bordercolor="#666666"
     borderopacity="1.0"
     inkscape:pageopacity="0.0"
     inkscape:pageshadow="2"
     inkscape:zoom="4"
     inkscape:cx="343.30814"
     inkscape:cy="102.96478"
     inkscape:document-units="mm"
     inkscape:current-layer="layer1"
     showgrid="true"
     inkscape:snap-bbox="true"
     inkscape:bbox-nodes="true"
     inkscape:window-width="1920"
     inkscape:window-height="1023"
     inkscape:window-x="0"
     inkscape:window-y="33"
     inkscape:window-maximized="1">
    <inkscape:grid
       type="xygrid"
       id="grid3140" />
  </sodipodi:namedview>
  <metadata
     id="metadata2586">
    <rdf:RDF>
      <cc:Work
         rdf:about="">
        <dc:format>image/svg+xml</dc:format>
        <dc:type
           rdf:resource="http://purl.org/dc/dcmitype/StillImage" />
        <dc:title />
      </cc:Work>
    </rdf:RDF>
  </metadata>
  <g
     inkscape:label="Ebene 1"
     inkscape:groupmode="layer"
     id="layer1">
    <g
       style="display:inline;fill:#d3d3d3"
       transform="matrix(1.25,0,0,1.25,8.7e-7,-5.4582088)"
       id="g4850"
       inkscape:export-xdpi="117.13"
       inkscape:export-ydpi="117.13">
      <path
         inkscape:connector-curvature="0"
         style="fill:#d3d3d3;fill-rule:evenodd;stroke:none;stroke-width:0.99999994px;stroke-linecap:butt;stroke-linejoin:miter;stroke-opacity:1"
         d="m 96,786.51953 -32,48 c 0,2.51842 0.794829,5.03584 2.130859,7.30469 L 57,855.51953 c 4e-6,0.99999 1.000005,1.99996 2,2 l 13.695312,-9.13086 c 2.268842,1.33603 4.78627,2.13086 7.304688,2.13086 l 48,-32 z"
         transform="scale(0.26458333)"
         id="path4846" />
    </g>
    <path
       style="display:inline;fill:#000000;fill-opacity:1;stroke:none;stroke-width:0.1;stroke-miterlimit:4;stroke-dasharray:none"
       d="m 32.808332,297 c 0.586317,0 1.058334,-0.47202 1.058334,-1.05834 v -31.74999 c 0,-0.58631 -0.472017,-1.05833 -1.058334,-1.05833 H 1.058333 C 0.47201701,263.13334 0,263.60536 0,264.19167 v 31.74999 C 0,296.52798 0.47201701,297 1.058333,297 Z m 0,-0.52917 H 1.058333 c -0.29315803,0 -0.52916599,-0.23601 -0.52916599,-0.52917 v -31.74999 c 0,-0.29316 0.23600796,-0.52916 0.52916599,-0.52916 h 31.749999 c 0.293159,0 0.529167,0.236 0.529167,0.52916 v 31.74999 c 0,0.29316 -0.236008,0.52917 -0.529167,0.52917 z"
       id="rect4822"
       inkscape:connector-curvature="0"
       inkscape:export-xdpi="117.13"
       inkscape:export-ydpi="117.13"
       sodipodi:nodetypes="ssssssssssssssssss" />
    <path
       style="fill:#000000;stroke:none;stroke-width:0.26458332px;stroke-linecap:butt;stroke-linejoin:miter;stroke-opacity:1"
       d="m 3.7041667,265.51458 -2.116667,6.87917 3e-7,1.05833 h 0.79375 l 2.1166667,-6.87916 h 2.38125 l 2.1166666,6.87916 h 3.4395837 0.529166 l 2.116667,-6.87916 h 2.38125 l 2.116666,6.87916 h 3.96875 l 2.116667,-6.87916 h 2.38125 l 2.116667,6.87916 h 2.116666 l 1e-6,-1.05833 H 30.95625 l -2.116667,-6.87917 h -3.96875 l -2.116666,6.61459 h -2.38125 L 18.25625,265.51458 H 14.2875 l -2.116667,6.87917 H 9.7895833 l -2.1166667,-6.87917 z"
       id="path3169"
       inkscape:connector-curvature="0"
       sodipodi:nodetypes="ccccccccccccccccccccccccccccc" />
    <path
       style="fill:#000000;stroke:none;stroke-width:0.99999994px;stroke-linecap:butt;stroke-linejoin:miter;stroke-opacity:1"
       d="m 18,1043.5195 -3,13 H 6 l 2e-7,4.0002 H 15 l 3,12.9998 H 52 L 55.000001,1060.5197 58,1073.5195 h 17 c 5.000001,-10.9998 -4.999999,-18.9998 0,-30 H 58 l -3,13 -3,-13 z m 3,4.0002 h 28.000001 l 2,9 0,4.0002 -2,9 h -28 l -2,-9 -1e-6,-4.0002 z m 40.000001,0 h 9 c -2,10 4,14.0002 2,22.0002 h -11 l -1.999999,-9 -1e-6,-4.0002 z"
       transform="scale(0.26458333)"
       id="path3236"
       inkscape:connector-curvature="0"
       sodipodi:nodetypes="ccccccccccccccccccccccccccccccc" />
    <path
       style="fill:#000000;stroke:none;stroke-width:0.26458332px;stroke-linecap:butt;stroke-linejoin:miter;stroke-opacity:1"
       d="m 4.7624999,286.68125 -2.1166666,6.87917 H 1.5875 l -10e-8,1.05833 H 3.4395832 L 5.55625,287.73958 h 8.202083 l 2.116667,6.87917 h 16.404166 l 0,-1.05833 H 16.66875 l -2.116667,-6.87917 z"
       id="path3169-3"
       inkscape:connector-curvature="0"
       sodipodi:nodetypes="ccccccccccccc" />
    <path
       style="fill:#000000;stroke:none;stroke-width:0.99999994px;stroke-linecap:butt;stroke-linejoin:miter;stroke-opacity:1"
       d="M 70 856.51953 C 62.5 856.51953 55 858.51954 55 862.51953 L 55 932.51953 L 70 962.51953 L 85 932.51953 L 85 862.51953 C 85 858.51954 77.5 856.51953 70 856.51953 z M 70 859.51953 C 76 859.51953 82 860.51954 82 862.51953 C 82 866.51956 58 866.51956 58 862.51953 C 58 860.51954 64 859.51953 70 859.51953 z M 58 866.51953 C 58.000004 869.51953 82.000004 869.51953 82 866.51953 L 82 871.51953 C 82 875.51956 58 875.51956 58 871.51953 L 58 866.51953 z M 58 877.51953 L 63 878.51953 L 63 929.51953 L 58 928.51953 L 58 877.51953 z M 82 877.51953 L 82 928.51953 L 77 929.51953 L 77 878.51953 L 82 877.51953 z M 66 878.51953 L 74 878.51953 L 74 929.51953 C 71.333332 929.51949 68.666668 929.51953 66 929.51953 L 66 878.51953 z M 59 932.51953 C 61.000001 934.51954 78.999999 934.51954 81 932.51953 L 73 948.51953 C 72.000001 949.51952 68.000003 949.51952 67 948.51953 L 59 932.51953 z "
       transform="scale(0.26458333)"
       id="path820" />
    <path
       inkscape:connector-curvature="0"
       style="fill:#000000;stroke:none;stroke-width:0.26458332px;stroke-linecap:butt;stroke-linejoin:miter;stroke-opacity:1"
       d="m 38.881396,258.11861 c -1.403165,-1.40317 -3.180509,-2.43215 -3.928862,-1.6838 L 21.85633,269.53101 19.05,277.95 l 8.41899,-2.80633 13.096204,-13.0962 c 0.748353,-0.74835 -0.280633,-2.5257 -1.683798,-3.92886 z m -0.561266,0.56126 c 1.122532,1.12253 2.057978,2.43215 1.683798,2.80633 -0.748359,0.74836 -5.238487,-3.74177 -4.490128,-4.49013 0.37418,-0.37417 1.683798,0.56127 2.80633,1.6838 z m -3.554682,-0.93544 c -0.561265,0.56126 3.928863,5.05139 4.490128,4.49013 L 38.32013,263.17 c -0.748359,0.74836 -5.238487,-3.74177 -4.490128,-4.49013 z m -2.057978,2.05797 0.748357,1.12253 -9.541522,9.54153 -0.748357,-1.12253 z m 4.490128,4.49013 -9.541522,9.54152 -1.12253,-0.74835 9.541522,-9.54152 z m -3.180505,-2.80633 1.496709,1.49671 -9.541522,9.54152 c -0.498896,-0.49891 -0.997806,-0.9978 -1.496709,-1.49671 z m -11.412409,8.79317 c -2e-6,0.74835 3.367593,4.11595 4.115951,4.11595 l -4.490133,1.49671 c -0.374174,0 -1.122529,-0.74835 -1.122532,-1.12253 z"
       id="path820-3" />
    <path
       style="display:inline;fill:#000000;fill-opacity:1;stroke:none;stroke-width:0.37795275;stroke-miterlimit:4;stroke-dasharray:none"
       d="M 339.87109 968.25781 C 338.76072 968.20809 337.81062 968.49602 337.10352 969.20312 L 311.78711 994.51953 L 209 994.51953 C 206.784 994.51953 205 996.30356 205 998.51953 L 205 1118.5195 C 205 1120.7355 206.784 1122.5195 209 1122.5195 L 329 1122.5195 C 331.216 1122.5195 333 1120.7355 333 1118.5195 L 333 1015.7344 L 358.31641 990.41602 C 361.14483 987.58761 357.25642 980.86969 351.95312 975.56641 C 347.97565 971.58892 343.20223 968.40697 339.87109 968.25781 z M 339.91406 971.01758 C 341.8669 970.80491 346.11972 973.9752 349.83203 977.6875 C 354.07467 981.93013 357.60953 986.8807 356.19531 988.29492 C 353.36687 991.12337 336.39616 974.15267 339.22461 971.32422 C 339.40139 971.14745 339.63509 971.04796 339.91406 971.01758 z M 336.39648 974.15234 C 334.27516 976.27364 351.24587 993.24434 353.36719 991.12305 L 349.83203 994.6582 C 347.00359 997.48665 330.03288 980.51595 332.86133 977.6875 L 336.39648 974.15234 z M 328.61914 981.92969 L 331.44727 986.17383 L 295.38477 1022.2363 L 292.55664 1017.9922 L 328.61914 981.92969 z M 333.56836 988.29492 L 339.22461 993.95117 L 303.16211 1030.0137 C 301.27652 1028.128 299.39148 1026.2431 297.50586 1024.3574 L 333.56836 988.29492 z M 341.34766 996.07227 L 345.58984 998.90039 L 309.52734 1034.9629 L 305.28516 1032.1348 L 341.34766 996.07227 z M 209 996.51953 L 309.78711 996.51953 L 302.78711 1003.5195 L 299 1003.5195 L 297.2168 1009.0898 L 287.60742 1018.6992 L 284.33398 1028.5195 L 282 1028.5195 L 274 1003.5195 L 259 1003.5195 L 251 1029.5195 L 242 1029.5195 L 234 1003.5195 L 219 1003.5195 L 211 1029.5195 L 211 1033.5195 L 214 1033.5195 L 222 1007.5195 L 231 1007.5195 L 239 1033.5195 L 252 1033.5195 L 254 1033.5195 L 262 1007.5195 L 271 1007.5195 L 279 1033.5195 L 282.66797 1033.5195 L 279.33398 1043.5195 L 263 1043.5195 L 260 1056.5195 L 257 1043.5195 L 223 1043.5195 L 220 1056.5195 L 211 1056.5195 L 211 1060.5195 L 220 1060.5195 L 223 1073.5195 L 257 1073.5195 L 260 1060.5195 L 263 1073.5195 L 280 1073.5195 C 283.9683 1064.7895 278.50876 1057.9447 278.57812 1049.9941 L 308.82031 1039.9141 L 318.10938 1030.625 L 319 1033.5195 L 327 1033.5195 L 327 1029.5195 L 322 1029.5195 L 321.34375 1027.3887 L 331 1017.7344 L 331 1118.5195 C 331 1119.6275 330.108 1120.5195 329 1120.5195 L 209 1120.5195 C 207.892 1120.5195 207 1119.6275 207 1118.5195 L 207 998.51953 C 207 997.41152 207.892 996.51953 209 996.51953 z M 290.43555 1021.5293 C 290.43554 1024.3577 303.16374 1037.084 305.99219 1037.084 L 289.02148 1042.7422 C 287.60728 1042.7422 284.77736 1039.9123 284.77734 1038.498 L 290.43555 1021.5293 z M 226 1047.5195 L 254 1047.5195 L 256 1056.5195 L 256 1060.5195 L 254 1069.5195 L 226 1069.5195 L 224 1060.5195 L 224 1056.5195 L 226 1047.5195 z M 266 1047.5195 L 275 1047.5195 C 273 1057.5195 279 1061.5196 277 1069.5195 L 266 1069.5195 L 264 1060.5195 L 264 1056.5195 L 266 1047.5195 z M 223 1083.5195 L 215 1109.5195 L 211 1109.5195 L 211 1113.5195 L 218 1113.5195 L 226 1087.5195 L 257 1087.5195 L 265 1113.5195 L 327 1113.5195 L 327 1109.5195 L 268 1109.5195 L 260 1083.5195 L 223 1083.5195 z "
       transform="scale(0.26458333)"
       id="rect4822-6" />
  </g>
</svg>
